<svg width="42" height="32" viewBox="0 0 42 32" fill="none" xmlns="http://www.w3.org/2000/svg">
<g clip-path="url(#clip0_452_42609)">
<path d="M7.48679 31.8261V29.7071C7.49914 29.5289 7.47338 29.3501 7.41121 29.1826C7.34904 29.0152 7.25189 28.8629 7.12625 28.7359C7.0006 28.6089 6.84934 28.5102 6.68254 28.4462C6.51574 28.3823 6.33722 28.3546 6.15889 28.3651C5.92547 28.3498 5.69222 28.3974 5.48349 28.503C5.27476 28.6086 5.0982 28.7683 4.97226 28.9655C4.85745 28.7743 4.69319 28.6176 4.49678 28.5119C4.30036 28.4062 4.07908 28.3555 3.85626 28.3651C3.66202 28.3553 3.46859 28.3965 3.29514 28.4844C3.12169 28.5724 2.97423 28.7041 2.86739 28.8666V28.4499H2.13281V31.8261H2.87446V29.9685C2.85868 29.853 2.86861 29.7355 2.90352 29.6243C2.93844 29.5131 2.99749 29.4111 3.07644 29.3254C3.1554 29.2397 3.25231 29.1724 3.36025 29.1286C3.4682 29.0847 3.5845 29.0651 3.70086 29.0714C4.18823 29.0714 4.43545 29.3893 4.43545 29.9614V31.8403H5.17709V29.9685C5.16196 29.8531 5.17234 29.7359 5.2075 29.625C5.24265 29.5141 5.30173 29.4123 5.38055 29.3267C5.45937 29.2411 5.55601 29.1739 5.66365 29.1298C5.77129 29.0857 5.88731 29.0658 6.0035 29.0714C6.505 29.0714 6.74515 29.3893 6.74515 29.9614V31.8403L7.48679 31.8261ZM18.4597 28.4499H17.2519V27.4257H16.5102V28.4499H15.8392V29.1209H16.5243V30.6748C16.5243 31.4588 16.8281 31.925 17.6969 31.925C18.0214 31.9261 18.3397 31.8355 18.6151 31.6637L18.4032 31.035C18.2062 31.1525 17.9826 31.2182 17.7534 31.2257C17.4002 31.2257 17.266 30.9997 17.266 30.6607V29.1209H18.4668L18.4597 28.4499ZM24.7248 28.3651C24.5457 28.3598 24.3685 28.403 24.2119 28.49C24.0553 28.577 23.925 28.7047 23.8349 28.8595V28.4499H23.1073V31.8261H23.8419V29.9331C23.8419 29.3751 24.0821 29.0644 24.5483 29.0644C24.7054 29.0622 24.8614 29.091 25.0074 29.1491L25.2334 28.4429C25.0656 28.3829 24.8889 28.3517 24.7107 28.351L24.7248 28.3651ZM15.2529 28.7183C14.8371 28.471 14.3591 28.3485 13.8756 28.3651C13.0209 28.3651 12.4629 28.7748 12.4629 29.4458C12.4629 29.9967 12.8726 30.3358 13.6284 30.4417L13.9816 30.4911C14.3842 30.5477 14.5749 30.6536 14.5749 30.8443C14.5749 31.1057 14.3065 31.254 13.805 31.254C13.4016 31.2657 13.006 31.1413 12.6819 30.9008L12.3287 31.4729C12.7566 31.7717 13.2692 31.9252 13.7908 31.9109C14.7656 31.9109 15.3306 31.4518 15.3306 30.809C15.3306 30.1662 14.8857 29.905 14.1511 29.799L13.7979 29.7495C13.4801 29.7071 13.2258 29.6436 13.2258 29.4175C13.2258 29.1915 13.4659 29.022 13.8685 29.022C14.2407 29.0263 14.6055 29.126 14.928 29.3116L15.2529 28.7183ZM34.9278 28.3651C34.7487 28.3598 34.5715 28.403 34.4148 28.49C34.2582 28.577 34.128 28.7047 34.0378 28.8595V28.4499H33.3103V31.8261H34.0449V29.9331C34.0449 29.3751 34.285 29.0644 34.7512 29.0644C34.9083 29.0622 35.0643 29.091 35.2103 29.1491L35.4363 28.4429C35.2686 28.3829 35.0918 28.3517 34.9137 28.351L34.9278 28.3651ZM25.463 30.1309C25.4542 30.3682 25.4951 30.6047 25.583 30.8252C25.6709 31.0458 25.8039 31.2455 25.9734 31.4117C26.143 31.578 26.3453 31.707 26.5676 31.7906C26.7898 31.8741 27.0271 31.9102 27.2641 31.8967C27.7052 31.9192 28.1386 31.7756 28.479 31.4942L28.1258 30.9008C27.8719 31.0945 27.5622 31.201 27.2429 31.2045C26.9714 31.1826 26.7181 31.0592 26.5334 30.8589C26.3487 30.6587 26.2461 30.3963 26.2461 30.1239C26.2461 29.8514 26.3487 29.589 26.5334 29.3888C26.7181 29.1885 26.9714 29.0651 27.2429 29.0432C27.5622 29.0467 27.8719 29.1532 28.1258 29.3469L28.479 28.7536C28.1386 28.4722 27.7052 28.3285 27.2641 28.351C27.0271 28.3375 26.7898 28.3737 26.5676 28.4572C26.3453 28.5408 26.143 28.6698 25.9734 28.8361C25.8039 29.0023 25.6709 29.2021 25.583 29.4226C25.4951 29.6432 25.4542 29.8795 25.463 30.1168V30.1309ZM32.3426 30.1309V28.4499H31.608V28.8595C31.4833 28.699 31.3222 28.5705 31.1379 28.4845C30.9537 28.3985 30.7517 28.3576 30.5485 28.3651C30.0802 28.3651 29.6311 28.5511 29.2999 28.8823C28.9688 29.2134 28.7827 29.6626 28.7827 30.1309C28.7827 30.5992 28.9688 31.0484 29.2999 31.3795C29.6311 31.7107 30.0802 31.8967 30.5485 31.8967C30.7517 31.9042 30.9537 31.8633 31.1379 31.7773C31.3222 31.6914 31.4833 31.5628 31.608 31.4023V31.812H32.3426V30.1309ZM29.6091 30.1309C29.6208 29.9322 29.6904 29.7412 29.8093 29.5815C29.9282 29.4218 30.0911 29.3004 30.2782 29.2321C30.4652 29.1639 30.6681 29.1519 30.8619 29.1975C31.0557 29.2431 31.2319 29.3444 31.3688 29.4889C31.5058 29.6334 31.5974 29.8148 31.6326 30.0107C31.6678 30.2067 31.6448 30.4086 31.5667 30.5917C31.4885 30.7748 31.3585 30.9312 31.1926 31.0413C31.0268 31.1514 30.8324 31.2106 30.6333 31.2116C30.4935 31.2134 30.3548 31.1862 30.226 31.1318C30.0971 31.0773 29.981 30.9968 29.8848 30.8953C29.7886 30.7938 29.7144 30.6735 29.667 30.542C29.6196 30.4104 29.5998 30.2705 29.6091 30.1309ZM20.7447 28.3651C20.2763 28.3716 19.8298 28.564 19.5033 28.8998C19.1768 29.2356 18.997 29.6873 19.0036 30.1556C19.0101 30.624 19.2024 31.0705 19.5382 31.397C19.874 31.7235 20.3258 31.9033 20.7941 31.8967C21.3022 31.9228 21.8019 31.7592 22.1962 31.4376L21.843 30.8938C21.5641 31.1174 21.2187 31.2418 20.8612 31.247C20.6184 31.2678 20.377 31.1931 20.1884 31.0388C19.9998 30.8845 19.8788 30.6627 19.8512 30.4205H22.3586C22.3586 30.3287 22.3586 30.237 22.3586 30.1381C22.3586 29.0786 21.7017 28.3722 20.7553 28.3722L20.7447 28.3651ZM20.7447 29.022C20.8546 29.0196 20.9639 29.039 21.0663 29.0789C21.1688 29.1188 21.2624 29.1786 21.3417 29.2547C21.4211 29.3308 21.4847 29.4217 21.5289 29.5223C21.5731 29.623 21.597 29.7314 21.5993 29.8413H19.8335C19.8463 29.6146 19.9473 29.4019 20.115 29.2488C20.2827 29.0956 20.5036 29.0142 20.7305 29.022H20.7447ZM39.1481 30.1381V27.0938H38.4418V28.8595C38.317 28.699 38.1559 28.5705 37.9717 28.4845C37.7875 28.3985 37.5854 28.3576 37.3823 28.3651C36.914 28.3651 36.4648 28.5511 36.1337 28.8823C35.8025 29.2134 35.6165 29.6626 35.6165 30.1309C35.6165 30.5992 35.8025 31.0484 36.1337 31.3795C36.4648 31.7107 36.914 31.8967 37.3823 31.8967C37.5854 31.9042 37.7875 31.8633 37.9717 31.7773C38.1559 31.6914 38.317 31.5628 38.4418 31.4023V31.812H39.1481V30.1381ZM40.3736 31.3352C40.4195 31.3346 40.465 31.343 40.5078 31.3599C40.5484 31.3765 40.5855 31.4004 40.6173 31.4306C40.6483 31.461 40.6735 31.4969 40.6914 31.5365C40.7093 31.5778 40.7186 31.6222 40.7186 31.6672C40.7186 31.7121 40.7093 31.7566 40.6914 31.7979C40.6735 31.8374 40.6483 31.8734 40.6173 31.9038C40.5855 31.9339 40.5484 31.9579 40.5078 31.9744C40.4655 31.9931 40.4198 32.0028 40.3736 32.0028C40.3066 32.0023 40.2412 31.9827 40.1849 31.9464C40.1287 31.9101 40.0839 31.8586 40.0557 31.7979C40.0381 31.7566 40.0289 31.7121 40.0289 31.6672C40.0289 31.6223 40.0381 31.5778 40.0557 31.5365C40.0737 31.4969 40.0989 31.461 40.1299 31.4306C40.1617 31.4004 40.1988 31.3765 40.2394 31.3599C40.2854 31.3416 40.3347 31.3332 40.3842 31.3352H40.3736ZM40.3736 31.9321C40.4088 31.9323 40.4437 31.9251 40.476 31.9109C40.5064 31.8973 40.534 31.8782 40.5572 31.8545C40.6014 31.8063 40.6259 31.7432 40.6259 31.6778C40.6259 31.6124 40.6014 31.5494 40.5572 31.5012C40.534 31.4774 40.5064 31.4583 40.476 31.4447C40.4437 31.4306 40.4088 31.4234 40.3736 31.4235C40.3384 31.4237 40.3036 31.4309 40.2712 31.4447C40.2394 31.4577 40.2106 31.4769 40.1864 31.5012C40.1422 31.5494 40.1177 31.6124 40.1177 31.6778C40.1177 31.7432 40.1422 31.8063 40.1864 31.8545C40.2107 31.8787 40.2395 31.8978 40.2712 31.9109C40.3068 31.9262 40.3454 31.9335 40.3842 31.9321H40.3736ZM40.3948 31.5118C40.4278 31.5102 40.4602 31.5202 40.4866 31.54C40.4974 31.549 40.5059 31.5604 40.5115 31.5733C40.517 31.5862 40.5194 31.6003 40.5184 31.6143C40.5189 31.626 40.517 31.6377 40.5127 31.6486C40.5085 31.6595 40.502 31.6695 40.4937 31.6778C40.4732 31.6964 40.4471 31.7077 40.4195 31.7097L40.5219 31.8261H40.4407L40.3453 31.7097H40.3136V31.8261H40.2465V31.5153L40.3948 31.5118ZM40.3171 31.5718V31.6566H40.3948C40.4086 31.6607 40.4233 31.6607 40.4372 31.6566C40.4396 31.6517 40.4409 31.6462 40.4409 31.6407C40.4409 31.6352 40.4396 31.6297 40.4372 31.6248C40.4396 31.6199 40.4409 31.6144 40.4409 31.6089C40.4409 31.6034 40.4396 31.5981 40.4372 31.5931C40.4233 31.589 40.4086 31.589 40.3948 31.5931L40.3171 31.5718ZM36.4323 30.1381C36.444 29.9392 36.5136 29.7483 36.6324 29.5886C36.7513 29.4289 36.9143 29.3075 37.1013 29.2393C37.2883 29.1711 37.4911 29.1589 37.685 29.2045C37.8788 29.2502 38.055 29.3515 38.192 29.496C38.3289 29.6405 38.4206 29.8218 38.4558 30.0178C38.4909 30.2138 38.468 30.4158 38.3898 30.5989C38.3117 30.782 38.1816 30.9381 38.0158 31.0483C37.85 31.1584 37.6555 31.2176 37.4564 31.2188C37.3166 31.2204 37.1779 31.1932 37.0491 31.1388C36.9203 31.0844 36.8041 31.0039 36.7079 30.9024C36.6117 30.8009 36.5376 30.6806 36.4901 30.549C36.4426 30.4175 36.423 30.2775 36.4323 30.1381ZM11.6295 30.1381V28.4499H10.8949V28.8595C10.7701 28.699 10.609 28.5705 10.4248 28.4845C10.2406 28.3985 10.0385 28.3576 9.83534 28.3651C9.36702 28.3651 8.91787 28.5511 8.58672 28.8823C8.25556 29.2134 8.06952 29.6626 8.06952 30.1309C8.06952 30.5992 8.25556 31.0484 8.58672 31.3795C8.91787 31.7107 9.36702 31.8967 9.83534 31.8967C10.0385 31.9042 10.2406 31.8633 10.4248 31.7773C10.609 31.6914 10.7701 31.5628 10.8949 31.4023V31.812H11.6295V30.1381ZM8.89592 30.1381C8.90764 29.9392 8.97722 29.7483 9.09609 29.5886C9.21497 29.4289 9.37795 29.3075 9.56498 29.2393C9.752 29.1711 9.95489 29.1589 10.1487 29.2045C10.3425 29.2502 10.5187 29.3515 10.6557 29.496C10.7926 29.6405 10.8843 29.8218 10.9195 30.0178C10.9546 30.2138 10.9317 30.4158 10.8535 30.5989C10.7754 30.782 10.6453 30.9381 10.4795 31.0483C10.3137 31.1584 10.1192 31.2176 9.9201 31.2188C9.77968 31.2214 9.64022 31.195 9.51056 31.141C9.3809 31.087 9.26388 31.0066 9.16692 30.905C9.06996 30.8034 8.99517 30.6828 8.9473 30.5507C8.89944 30.4187 8.87954 30.2782 8.88886 30.1381H8.89592Z" fill="#231F20"/>
<path d="M26.1325 2.71875H15.0078V22.7114H26.1325V2.71875Z" fill="#FF5F00"/>
<path d="M15.714 12.7197C15.7119 10.794 16.1481 8.89297 16.9894 7.16076C17.8307 5.42855 19.0552 3.91049 20.57 2.72152C18.6944 1.24748 16.4419 0.33087 14.07 0.0764359C11.6981 -0.177998 9.30242 0.240013 7.15684 1.28269C5.01125 2.32538 3.2023 3.95066 1.93672 5.9728C0.671142 7.99493 0 10.3324 0 12.7179C0 15.1034 0.671142 17.4408 1.93672 19.463C3.2023 21.4851 5.01125 23.1104 7.15684 24.1531C9.30242 25.1958 11.6981 25.6138 14.07 25.3593C16.4419 25.1049 18.6944 24.1883 20.57 22.7142C19.0556 21.5256 17.8315 20.0081 16.9902 18.2766C16.1489 16.545 15.7125 14.6448 15.714 12.7197Z" fill="#EB001B"/>
<path d="M41.1422 12.7172C41.1421 15.1029 40.4708 17.4404 39.205 19.4626C37.9392 21.4849 36.13 23.1101 33.9841 24.1526C31.8383 25.1952 29.4424 25.6129 27.0704 25.3581C24.6983 25.1033 22.4458 24.1863 20.5703 22.7118C22.0841 21.5221 23.3079 20.0042 24.1494 18.2725C24.9909 16.5409 25.4282 14.6407 25.4282 12.7154C25.4282 10.7901 24.9909 8.88997 24.1494 7.15831C23.3079 5.42666 22.0841 3.90874 20.5703 2.71908C22.4458 1.24459 24.6983 0.327527 27.0704 0.0727281C29.4424 -0.182072 31.8383 0.235671 33.9841 1.27821C36.13 2.32074 37.9392 3.946 39.205 5.9682C40.4708 7.99041 41.1421 10.328 41.1422 12.7137V12.7172Z" fill="#F79E1B"/>
<path d="M39.9262 20.5921V20.1824H40.0921V20.0977H39.6719V20.1824H39.852V20.5921H39.9262ZM40.742 20.5921V20.0977H40.6148L40.4665 20.4508L40.3182 20.0977H40.2052V20.5921H40.297V20.2213L40.4347 20.5426H40.5301L40.6678 20.2213V20.5956L40.742 20.5921Z" fill="#F79E1B"/>
</g>
<defs>
<clipPath id="clip0_452_42609">
<rect width="42" height="32" fill="white"/>
</clipPath>
</defs>
</svg>
