<svg width="42" height="32" viewBox="0 0 42 32" fill="none" xmlns="http://www.w3.org/2000/svg">
<g clip-path="url(#clip0_452_42615)">
<path d="M40.7391 20.5908V20.0977H40.6106L40.4618 20.4364L40.3139 20.0977H40.1846V20.5908H40.2759V20.2189L40.415 20.5399H40.5095L40.6486 20.2181V20.5908H40.7391ZM39.9235 20.5908V20.1818H40.0884V20.0985H39.668V20.1818H39.8329V20.5908H39.9235Z" fill="#0099DF"/>
<path d="M26.1283 22.7113H15.0039V2.71875H26.1283V22.7113Z" fill="#6C6BBD"/>
<path d="M15.7146 12.7148C15.7146 8.65921 17.6135 5.04663 20.5705 2.71853C18.4081 1.01612 15.6791 0 12.7132 0C5.6917 0 0 5.69251 0 12.7148C0 19.7371 5.6917 25.4296 12.7132 25.4296C15.6791 25.4296 18.4081 24.4135 20.5705 22.7111C17.6135 20.383 15.7146 16.7704 15.7146 12.7148Z" fill="#EB001B"/>
<path d="M41.1299 12.7148C41.1299 19.7371 35.4382 25.4296 28.4167 25.4296C25.4508 25.4296 22.7218 24.4135 20.5586 22.7111C23.5164 20.383 25.4153 16.7704 25.4153 12.7148C25.4153 8.65921 23.5164 5.04663 20.5586 2.71853C22.7218 1.01612 25.4508 0 28.4167 0C35.4382 0 41.1299 5.69251 41.1299 12.7148Z" fill="#0099DF"/>
<path d="M29.8746 28.3574C30.0225 28.3574 30.2351 28.3856 30.3976 28.4495L30.1713 29.1415C30.0161 29.0776 29.8609 29.0566 29.7121 29.0566C29.232 29.0566 28.9919 29.367 28.9919 29.9248V31.818H28.2571V28.4422H28.9846V28.8521C29.1754 28.5554 29.451 28.3574 29.8746 28.3574ZM27.1601 29.1132H25.9597V30.6386C25.9597 30.9773 26.0793 31.2036 26.4471 31.2036C26.6379 31.2036 26.878 31.1397 27.0963 31.0128L27.308 31.6409C27.0752 31.8034 26.7082 31.9028 26.3905 31.9028C25.5216 31.9028 25.2184 31.4364 25.2184 30.6523V29.1132H24.5329V28.4422H25.2184V27.418H25.9597V28.4422H27.1601V29.1132ZM17.7596 29.8334C17.838 29.346 18.1339 29.0137 18.6569 29.0137C19.1298 29.0137 19.4338 29.3104 19.5114 29.8334H17.7596ZM20.2745 30.1301C20.2672 29.0776 19.6173 28.3574 18.6707 28.3574C17.682 28.3574 16.9901 29.0776 16.9901 30.1301C16.9901 31.2028 17.7103 31.902 18.7208 31.902C19.2292 31.902 19.6949 31.7751 20.1047 31.4291L19.7442 30.8851C19.462 31.1115 19.1015 31.2384 18.7628 31.2384C18.2899 31.2384 17.8591 31.0193 17.7532 30.4122H20.2599C20.2672 30.3201 20.2745 30.2287 20.2745 30.1301ZM23.5015 29.304C23.2969 29.1762 22.8806 29.0137 22.4498 29.0137C22.0472 29.0137 21.8071 29.1625 21.8071 29.4098C21.8071 29.6354 22.0609 29.6992 22.3786 29.7413L22.7246 29.7906C23.4594 29.8973 23.904 30.2077 23.904 30.801C23.904 31.4437 23.339 31.9028 22.3649 31.9028C21.8136 31.9028 21.3051 31.7614 20.9026 31.4647L21.2485 30.8924C21.4959 31.0832 21.8637 31.2456 22.3722 31.2456C22.8734 31.2456 23.1417 31.0977 23.1417 30.8358C23.1417 30.6458 22.951 30.5391 22.5484 30.4834L22.2024 30.434C21.4466 30.3273 21.0367 29.9886 21.0367 29.4381C21.0367 28.7672 21.588 28.3574 22.4425 28.3574C22.9792 28.3574 23.4667 28.4778 23.8191 28.7106L23.5015 29.304ZM32.5592 29.055C32.408 29.055 32.2682 29.0817 32.138 29.1342C32.0087 29.1875 31.8963 29.2619 31.8017 29.3573C31.7072 29.4527 31.6328 29.5675 31.5786 29.7009C31.5245 29.8342 31.4978 29.9814 31.4978 30.1414C31.4978 30.3023 31.5245 30.4486 31.5786 30.582C31.6328 30.7154 31.7072 30.8301 31.8017 30.9255C31.8963 31.0209 32.0087 31.0953 32.138 31.1486C32.2682 31.202 32.408 31.2279 32.5592 31.2279C32.7104 31.2279 32.851 31.202 32.9803 31.1486C33.1105 31.0953 33.2237 31.0209 33.3182 30.9255C33.4144 30.8301 33.4888 30.7154 33.5438 30.582C33.5979 30.4486 33.6246 30.3023 33.6246 30.1414C33.6246 29.9814 33.5979 29.8342 33.5438 29.7009C33.4888 29.5675 33.4144 29.4527 33.3182 29.3573C33.2237 29.2619 33.1105 29.1875 32.9803 29.1342C32.851 29.0817 32.7104 29.055 32.5592 29.055ZM32.5592 28.3574C32.8211 28.3574 33.0636 28.4026 33.2867 28.494C33.5098 28.5845 33.703 28.7098 33.8655 28.8691C34.0288 29.0283 34.1557 29.2166 34.2479 29.4333C34.34 29.6507 34.3861 29.8868 34.3861 30.1414C34.3861 30.3961 34.34 30.6321 34.2479 30.8495C34.1557 31.0662 34.0288 31.2553 33.8655 31.4146C33.703 31.5738 33.5098 31.6983 33.2867 31.7897C33.0636 31.8802 32.8211 31.9255 32.5592 31.9255C32.2973 31.9255 32.0548 31.8802 31.8317 31.7897C31.6085 31.6983 31.417 31.5738 31.2553 31.4146C31.0936 31.2553 30.9667 31.0662 30.8746 30.8495C30.7824 30.6321 30.7363 30.3961 30.7363 30.1414C30.7363 29.8868 30.7824 29.6507 30.8746 29.4333C30.9667 29.2166 31.0936 29.0283 31.2553 28.8691C31.417 28.7098 31.6085 28.5845 31.8317 28.494C32.0548 28.4026 32.2973 28.3574 32.5592 28.3574ZM13.4688 30.1301C13.4688 29.5368 13.8577 29.0493 14.493 29.0493C15.1001 29.0493 15.5099 29.5157 15.5099 30.1301C15.5099 30.7445 15.1001 31.2101 14.493 31.2101C13.8577 31.2101 13.4688 30.7234 13.4688 30.1301ZM16.2019 30.1301V28.4422H15.4679V28.8521C15.2343 28.5481 14.8818 28.3574 14.4017 28.3574C13.4551 28.3574 12.7138 29.0986 12.7138 30.1301C12.7138 31.1608 13.4551 31.9028 14.4017 31.9028C14.8818 31.9028 15.2343 31.7121 15.4679 31.4081V31.818H16.2019V30.1301ZM12.0639 31.818V29.6992C12.0639 28.9014 11.5554 28.3646 10.7366 28.3574C10.3057 28.3501 9.86033 28.4843 9.54992 28.958C9.31711 28.5837 8.94931 28.3574 8.43357 28.3574C8.07385 28.3574 7.72059 28.4633 7.44494 28.8585V28.4422H6.71094V31.818H7.45221V29.9466C7.45221 29.3605 7.77718 29.0493 8.27836 29.0493C8.76581 29.0493 9.01317 29.367 9.01317 29.9393V31.818H9.75444V29.9466C9.75444 29.3605 10.0939 29.0493 10.5805 29.0493C11.0825 29.0493 11.3226 29.367 11.3226 29.9393V31.818H12.0639Z" fill="#231F20"/>
<path d="M35.1807 31.5649V31.6482H35.2575C35.2745 31.6482 35.289 31.6441 35.2987 31.6377C35.3092 31.6312 35.3149 31.6199 35.3149 31.6061C35.3149 31.5924 35.3092 31.5819 35.2987 31.5754C35.289 31.5681 35.2745 31.5649 35.2575 31.5649H35.1807ZM35.2583 31.5067C35.2979 31.5067 35.3286 31.5156 35.3504 31.5334C35.3723 31.5512 35.3828 31.5754 35.3828 31.6061C35.3828 31.632 35.3747 31.653 35.3569 31.67C35.3399 31.6862 35.3149 31.6967 35.2834 31.7007L35.3852 31.8179H35.306L35.2114 31.7015H35.1807V31.8179H35.1144V31.5067H35.2583ZM35.2381 31.9246C35.2745 31.9246 35.3084 31.9182 35.3391 31.9044C35.3707 31.8907 35.3981 31.8721 35.4216 31.8486C35.445 31.8252 35.4636 31.7977 35.4774 31.7654C35.4903 31.7339 35.4976 31.6999 35.4976 31.6635C35.4976 31.6272 35.4903 31.5932 35.4774 31.5617C35.4636 31.5301 35.445 31.5019 35.4216 31.4784C35.3981 31.455 35.3707 31.4364 35.3391 31.4234C35.3084 31.4097 35.2745 31.4032 35.2381 31.4032C35.2017 31.4032 35.167 31.4097 35.1354 31.4234C35.1031 31.4364 35.0748 31.455 35.0514 31.4784C35.0279 31.5019 35.0093 31.5301 34.9964 31.5617C34.9826 31.5932 34.9762 31.6272 34.9762 31.6635C34.9762 31.6999 34.9826 31.7339 34.9964 31.7654C35.0093 31.7977 35.0279 31.8252 35.0514 31.8486C35.0748 31.8721 35.1031 31.8907 35.1354 31.9044C35.167 31.9182 35.2017 31.9246 35.2381 31.9246ZM35.2381 31.3281C35.2858 31.3281 35.3294 31.3369 35.3707 31.3547C35.4127 31.3717 35.4483 31.396 35.4798 31.4267C35.5105 31.4566 35.5348 31.4922 35.5525 31.5334C35.5703 31.5738 35.5792 31.6175 35.5792 31.6635C35.5792 31.7096 35.5703 31.7533 35.5525 31.7937C35.5348 31.8341 35.5105 31.8697 35.4798 31.8996C35.4483 31.9303 35.4127 31.9545 35.3707 31.9723C35.3294 31.9901 35.2858 31.999 35.2381 31.999C35.1896 31.999 35.1451 31.9901 35.1031 31.9723C35.0611 31.9545 35.0247 31.9303 34.994 31.8996C34.9632 31.8697 34.939 31.8341 34.9212 31.7937C34.9034 31.7533 34.8945 31.7096 34.8945 31.6635C34.8945 31.6175 34.9034 31.5738 34.9212 31.5334C34.939 31.4922 34.9632 31.4566 34.994 31.4267C35.0247 31.396 35.0611 31.3717 35.1031 31.3547C35.1451 31.3369 35.1896 31.3281 35.2381 31.3281Z" fill="#231F20"/>
</g>
<defs>
<clipPath id="clip0_452_42615">
<rect width="42" height="32" fill="white"/>
</clipPath>
</defs>
</svg>
