<svg width="62" height="20" viewBox="0 0 62 20" fill="none" xmlns="http://www.w3.org/2000/svg">
<g clip-path="url(#clip0_452_42603)">
<path d="M26.7795 19.7121H21.7734L24.9046 0.351562H29.9103L26.7795 19.7121Z" fill="#00579F"/>
<path d="M44.9269 0.824254C43.9394 0.432522 42.3733 0 40.4368 0C35.4932 0 32.012 2.63619 31.9906 6.40515C31.9496 9.18587 34.4831 10.7304 36.378 11.6575C38.3148 12.605 38.9731 13.2234 38.9731 14.0679C38.9534 15.3649 37.4081 15.9628 35.9668 15.9628C33.9682 15.9628 32.8973 15.6545 31.2699 14.9329L30.6107 14.6236L29.9102 18.9696C31.0843 19.5045 33.2474 19.9792 35.4932 20C40.7459 20 44.1656 17.4046 44.2061 13.3882C44.2261 11.1842 42.8883 9.49548 40.004 8.11552C38.2532 7.22967 37.1809 6.63236 37.1809 5.72598C37.2014 4.902 38.0878 4.05803 40.0643 4.05803C41.6917 4.0167 42.8874 4.40788 43.7933 4.79934L44.246 5.00493L44.9269 0.824254Z" fill="#00579F"/>
<path d="M51.581 12.8533C51.9933 11.7411 53.5797 7.43642 53.5797 7.43642C53.5589 7.47776 53.9911 6.30366 54.2383 5.58288L54.5881 7.2511C54.5881 7.2511 55.5361 11.8854 55.742 12.8533C54.9596 12.8533 52.5698 12.8533 51.581 12.8533ZM57.7603 0.351562H53.8882C52.6941 0.351562 51.7869 0.701412 51.2717 1.95791L43.8359 19.7118H49.0886C49.0886 19.7118 49.9533 17.3223 50.1392 16.8076C50.7154 16.8076 55.8252 16.8076 56.5665 16.8076C56.7102 17.4873 57.1638 19.7118 57.1638 19.7118H61.7989L57.7603 0.351562Z" fill="#00579F"/>
<path d="M17.5899 0.351562L12.6873 13.5536L12.1516 10.8761C11.2452 7.78655 8.40266 4.42985 5.23047 2.76081L9.72103 19.6916H15.0147L22.8833 0.351562H17.5899Z" fill="#00579F"/>
<path d="M8.1366 0.351562H0.0823977L0 0.742749C6.28278 2.34937 10.4437 6.22208 12.1533 10.8769L10.4024 1.97899C10.1142 0.742474 9.2283 0.392352 8.1366 0.351562Z" fill="#FAA61A"/>
</g>
<defs>
<clipPath id="clip0_452_42603">
<rect width="62" height="20" fill="white"/>
</clipPath>
</defs>
</svg>
