<svg width="12" height="20" viewBox="0 0 12 20" fill="none" xmlns="http://www.w3.org/2000/svg">
<path d="M5.50205 10C6.49095 10 7.45765 9.70676 8.2799 9.15735C9.10214 8.60794 9.74301 7.82705 10.1214 6.91342C10.4999 5.99979 10.5989 4.99446 10.406 4.02455C10.213 3.05465 9.73684 2.16373 9.03758 1.46447C8.33832 0.765206 7.4474 0.289002 6.4775 0.0960758C5.50759 -0.0968503 4.50226 0.00216642 3.58863 0.380605C2.675 0.759043 1.89411 1.39991 1.3447 2.22215C0.795291 3.0444 0.502046 4.0111 0.502046 5C0.502046 6.32608 1.02883 7.59785 1.96651 8.53554C2.90419 9.47322 4.17596 10 5.50205 10ZM5.50205 3C5.89761 3 6.28429 3.1173 6.61319 3.33706C6.94208 3.55683 7.19843 3.86918 7.34981 4.23464C7.50118 4.60009 7.54079 5.00222 7.46362 5.39018C7.38645 5.77814 7.19596 6.13451 6.91626 6.41422C6.63655 6.69392 6.28019 6.8844 5.89223 6.96157C5.50426 7.03874 5.10213 6.99914 4.73668 6.84776C4.37123 6.69639 4.05887 6.44004 3.83911 6.11114C3.61934 5.78224 3.50205 5.39557 3.50205 5C3.50264 4.46975 3.71355 3.96139 4.08849 3.58645C4.46343 3.2115 4.9718 3.0006 5.50205 3Z" fill="current" stroke="none"/>
<path d="M7.33085 14.049C8.44647 13.8358 9.51384 13.4209 10.4806 12.8247C10.6371 12.7276 10.773 12.6005 10.8804 12.4507C10.9877 12.301 11.0644 12.1315 11.1062 11.952C11.1479 11.7725 11.1538 11.5866 11.1235 11.4049C11.0931 11.2231 11.0273 11.0491 10.9296 10.8929C10.8319 10.7367 10.7043 10.6012 10.5542 10.4944C10.4041 10.3876 10.2343 10.3115 10.0547 10.2704C9.87508 10.2293 9.68911 10.2241 9.50747 10.255C9.32583 10.286 9.15208 10.3525 8.9962 10.4507C7.96145 11.0814 6.77535 11.4203 5.56361 11.4315C4.35188 11.4428 3.15968 11.126 2.11339 10.5147C1.79507 10.3264 1.41518 10.2717 1.05665 10.3624C0.698117 10.4532 0.390056 10.6822 0.19971 10.9993C0.00936292 11.3164 -0.0478113 11.6959 0.0406672 12.055C0.129146 12.4141 0.356091 12.7236 0.671966 12.916C1.59946 13.4639 2.61466 13.8473 3.67276 14.0495L0.511816 17.2105C0.381424 17.3404 0.277939 17.4948 0.207284 17.6648C0.136629 17.8348 0.100192 18.017 0.100058 18.2011C0.0999234 18.3852 0.136095 18.5675 0.206502 18.7376C0.276908 18.9077 0.380168 19.0622 0.51037 19.1924C0.640573 19.3225 0.795162 19.4257 0.96529 19.496C1.13542 19.5663 1.31774 19.6024 1.50183 19.6022C1.68592 19.602 1.86816 19.5654 2.03811 19.4947C2.20807 19.424 2.3624 19.3204 2.49229 19.1899L5.50205 16.1802L8.51182 19.19C8.6417 19.3204 8.79604 19.424 8.96599 19.4947C9.13595 19.5654 9.31818 19.602 9.50227 19.6022C9.68636 19.6024 9.86869 19.5663 10.0388 19.496C10.2089 19.4257 10.3635 19.3225 10.4937 19.1924C10.6239 19.0622 10.7272 18.9077 10.7976 18.7376C10.868 18.5675 10.9042 18.3852 10.904 18.2011C10.9039 18.017 10.8675 17.8348 10.7968 17.6648C10.7262 17.4948 10.6227 17.3404 10.4923 17.2105L7.33085 14.049Z" fill="current" stroke="none"/>
</svg>
